<svg width="1024" height="1024" viewBox="0 0 120 120" fill="none" xmlns="http://www.w3.org/2000/svg">
  <rect width="120" height="120" rx="30" fill="#171B24"/>
  <path d="M24 78C29 70 38 61 54 47C68 35 75 28 75 24C75 21 71 20 64 20C52 20 39 22 26 27L33 13C42 9 55 7 73 7C92 7 102 11 102 19C102 25 95 34 80 48L58 67L93 60C100 59 106 58 111 58C121 58 127 61 129 67L134 81C127 78 121 77 114 77C109 77 103 78 95 80L36 98C30 100 24 101 19 101C9 101 4 98 4 93C4 90 6 86 10 78H24Z" fill="#F8F8F7"/>
  <path d="M86 14H104L66 53H47L86 14ZM101 17C106 17 110 19 112 24L125 58H109L95 34L74 55H56L91 17H101Z" fill="#F8F8F7"/>
</svg>
